<svg width="40" height="40" viewBox="0 0 40 40" fill="none" xmlns="http://www.w3.org/2000/svg">
<path d="M36 20C36 24.2435 34.3143 28.3131 31.3137 31.3137C28.3131 34.3143 24.2435 36 20 36C15.7565 36 11.6869 34.3143 8.68629 31.3137C5.68571 28.3131 4 24.2435 4 20C4 15.7565 5.68571 11.6869 8.68629 8.68629C11.6869 5.68571 15.7565 4 20 4C24.2435 4 28.3131 5.68571 31.3137 8.68629C34.3143 11.6869 36 15.7565 36 20ZM20 40C31.046 40 40 31.046 40 20C40 8.954 31.046 0 20 0C8.954 0 0 8.954 0 20C0 31.046 8.954 40 20 40ZM20.716 14.764C18.772 15.5733 14.8847 17.2487 9.054 19.79C8.106 20.166 7.61 20.534 7.566 20.894C7.49 21.502 8.252 21.742 9.29 22.068L9.726 22.208C10.746 22.54 12.122 22.928 12.836 22.944C13.484 22.9573 14.2067 22.6907 15.004 22.144C20.452 18.464 23.264 16.6047 23.44 16.566C23.566 16.538 23.738 16.502 23.854 16.606C23.972 16.71 23.96 16.906 23.948 16.96C23.872 17.282 20.88 20.064 19.332 21.502C18.8733 21.934 18.418 22.3693 17.966 22.808C17.018 23.722 16.306 24.408 18.006 25.528C19.728 26.664 21.466 27.796 23.146 28.994C23.974 29.586 24.718 30.114 25.638 30.032C26.172 29.982 26.724 29.48 27.004 27.98C27.668 24.44 28.97 16.764 29.27 13.6C29.2874 13.3375 29.276 13.074 29.236 12.814C29.2124 12.6048 29.111 12.412 28.952 12.274C28.712 12.078 28.342 12.038 28.178 12.04C27.426 12.054 26.272 12.454 20.718 14.764" fill="white"/>
</svg>
